<svg width="130" height="40" viewBox="0 0 130 40" fill="none" xmlns="http://www.w3.org/2000/svg">
<path d="M0 0H30.4C35.7 0 40 4.3 40 9.6V40H14.4C6.448 40 0 33.552 0 25.6V0Z" fill="url(#paint0_linear_460_241)"/>
<path d="M34.708 10.1082V13.6042H31.1V33.0002H26.904V23.2602C26.62 23.3482 26.34 23.4162 26.06 23.4682C25.276 23.6162 24.428 23.6882 23.52 23.6882C23.196 23.6882 22.848 23.6762 22.48 23.6482C22.608 24.1282 22.672 24.6202 22.672 25.1242C22.672 26.2762 22.416 27.2602 21.9 28.0682C21.384 28.8762 20.648 29.4922 19.692 29.9082C18.76 30.3002 17.632 30.4962 16.308 30.4962C14.836 30.4962 13.448 30.1922 12.148 29.5762C10.872 28.9402 9.65997 27.8602 8.50397 26.3402C7.35197 24.8162 6.19997 22.7322 5.04797 20.0842L8.68797 18.7202C9.37597 20.4642 10.088 21.9482 10.824 23.1722C11.584 24.4002 12.38 25.3322 13.216 25.9722C14.076 26.6082 15.008 26.9282 16.012 26.9282C16.796 26.9282 17.412 26.7322 17.852 26.3402C18.296 25.9482 18.516 25.3562 18.516 24.5722C18.516 23.4922 18.196 22.5722 17.56 21.8122C17.34 21.5402 17.088 21.2722 16.804 21.0122C16.032 21.1762 15.18 21.2722 14.248 21.2962L14.024 17.9122C15.572 17.8362 16.64 17.5802 17.228 17.1402C17.816 16.6722 18.112 16.0482 18.112 15.2602C18.112 14.4722 17.84 13.9722 17.3 13.6802C16.784 13.3842 16.196 13.2362 15.536 13.2362C14.7 13.2362 13.928 13.3602 13.216 13.6042C12.504 13.8282 11.792 14.1202 11.08 14.4882L9.86797 11.2122C10.556 10.8722 11.424 10.5402 12.48 10.2202C13.536 9.90023 14.7 9.74023 15.976 9.74023C18.012 9.74023 19.556 10.2562 20.612 11.2882C21.692 12.3162 22.232 13.6202 22.232 15.1882C22.232 16.3402 21.924 17.3722 21.312 18.2802C20.996 18.7682 20.592 19.2002 20.1 19.5802C20.248 19.7242 20.392 19.8762 20.54 20.0402C20.648 20.0562 20.76 20.0722 20.872 20.0842C21.508 20.1562 22.208 20.1922 22.968 20.1922C24.072 20.1922 25.04 20.1082 25.876 19.9362C26.208 19.8682 26.552 19.7762 26.904 19.6642V13.6042H24.44V10.1082H34.708Z" fill="white"/>
<path d="M126.104 11.1001C125.724 9.68809 125.288 8.42409 124.796 7.30409C124.324 6.16009 123.752 5.18809 123.08 4.38009C122.408 3.57209 121.612 2.95609 120.696 2.53209C119.8 2.10809 118.736 1.89209 117.504 1.89209C115.644 1.89209 114.176 2.37609 113.1 3.34009C112.028 4.30009 111.488 5.58009 111.488 7.16809C111.488 7.82009 111.58 8.48009 111.756 9.15209C111.916 9.75609 112.172 10.4041 112.512 11.1001H64.524C64.008 9.26009 63.48 7.74409 62.944 6.56409C62.384 5.33209 61.792 4.38009 61.164 3.70809C60.536 3.03609 59.852 2.56409 59.112 2.29609C58.352 2.02809 57.524 1.89209 56.628 1.89209C55.956 1.89209 55.36 1.94009 54.848 2.02809C54.308 2.11609 53.784 2.27609 53.268 2.50009L54.308 5.62409C54.624 5.51209 54.98 5.41209 55.384 5.32009C55.764 5.20809 56.18 5.15209 56.628 5.15209C57.388 5.15209 58.028 5.35609 58.544 5.75609C59.056 6.16009 59.516 6.82009 59.92 7.74009C60.304 8.58809 60.684 9.70809 61.064 11.1001H48V14.2921H61.34V19.4681H51.36C50.464 19.4681 49.86 19.6681 49.544 20.0721C49.256 20.4761 49.108 20.9561 49.108 21.5161C49.108 22.0081 49.256 22.5361 49.544 23.0961C49.86 23.6321 50.24 24.1361 50.688 24.6081C51.16 25.0761 51.664 25.4601 52.2 25.7481C52.736 26.0401 53.24 26.1881 53.712 26.1881C54.34 26.1881 54.832 26.0081 55.192 25.6481C55.548 25.2921 55.728 24.7081 55.728 23.9001V22.6921H61.34V32.0001H65.168V14.2921H69.696V20.2401C69.696 21.2241 69.752 22.0641 69.864 22.7601C69.976 23.4321 70.156 24.0121 70.404 24.5081C70.648 24.9761 70.964 25.4241 71.344 25.8521C71.816 26.3201 72.42 26.7121 73.16 27.0281C73.92 27.3401 74.792 27.4961 75.78 27.4961C76.632 27.4961 77.38 27.4281 78.032 27.2961C78.68 27.1601 79.296 26.9481 79.88 26.6561C80.144 26.5281 80.412 26.3881 80.684 26.2321V32.0001H84.516V14.2921H89.748V32.0001H93.576V14.2921H113.476V17.7241C113.42 17.7201 113.364 17.7201 113.308 17.7201C111.404 17.7201 109.78 18.2801 108.436 19.4001C108.404 19.4241 108.372 19.4521 108.344 19.4801C107.94 19.1801 107.532 18.9161 107.128 18.6921C106.52 18.3561 105.884 18.1121 105.212 17.9561C104.56 17.7761 103.824 17.6841 102.992 17.6841C102.368 17.6841 101.728 17.7881 101.08 17.9881C100.428 18.1681 99.824 18.4681 99.264 18.8961C98.704 19.3001 98.256 19.8361 97.92 20.5081C97.584 21.1801 97.416 21.9961 97.416 22.9601C97.416 24.0601 97.684 25.1121 98.224 26.1201C98.76 27.1041 99.544 28.1121 100.576 29.1441C101.604 30.1721 102.848 31.2921 104.304 32.5041L106.824 29.9841C105.524 28.9521 104.46 28.0681 103.632 27.3281C102.824 26.5681 102.22 25.8601 101.816 25.2121C101.436 24.5641 101.248 23.9001 101.248 23.2281C101.248 22.5561 101.448 22.0201 101.852 21.6161C102.276 21.1921 102.88 20.9801 103.664 20.9801C104.516 20.9801 105.256 21.2241 105.884 21.7161C106.044 21.8361 106.204 21.9601 106.364 22.0921C106.04 22.7641 105.768 23.5121 105.548 24.3401L109.144 25.4481C109.5 24.1921 109.916 23.2401 110.384 22.5921C110.856 21.9201 111.348 21.4601 111.864 21.2121C112.4 20.9681 112.916 20.8441 113.408 20.8441C113.432 20.8441 113.452 20.8441 113.476 20.8481V32.0001H117.308V14.2921H122.544V32.0001H126.372V14.2921H129.668V11.1001H126.104ZM80.684 22.2961C80.528 22.4521 80.348 22.6201 80.148 22.7921C79.676 23.1961 79.128 23.5561 78.5 23.8681C77.872 24.1601 77.2 24.3041 76.484 24.3041C75.992 24.3041 75.576 24.2481 75.24 24.1361C74.904 24.0241 74.624 23.8561 74.4 23.6321C74.2 23.4321 74.032 23.1961 73.896 22.9281C73.764 22.6361 73.664 22.2681 73.596 21.8201C73.552 21.3481 73.528 20.7201 73.528 19.9361V14.2921H80.684V22.2961ZM116.204 11.1001C115.984 10.6281 115.792 10.1601 115.62 9.68809C115.42 9.10809 115.32 8.45609 115.32 7.74009C115.32 6.93209 115.532 6.29609 115.956 5.82409C116.384 5.33209 117.02 5.08409 117.872 5.08409C118.636 5.08409 119.296 5.30809 119.856 5.75609C120.416 6.20409 120.92 6.87609 121.368 7.77209C121.816 8.64809 122.24 9.75609 122.644 11.1001H116.204Z" fill="black"/>
<defs>
<linearGradient id="paint0_linear_460_241" x1="20" y1="0" x2="20" y2="40" gradientUnits="userSpaceOnUse">
<stop stop-color="#FF4565"/>
<stop offset="1" stop-color="#D11233"/>
</linearGradient>
</defs>
</svg>
